PathFileType	4	(X/Y/Z)	c:/Users/goper/Files/vsCode/490R/osim_files/C11/C11_SSWS_06.trc
DataRate	CameraRate	NumFrames	NumMarkers	Units                	OrigDataRate	OrigDataStartFrame	OrigNumFrames
120.00	120.00	5	36	mm	120.0	481	1282
                Frame#	Time	LPSI			LASI			LTH1			LTH2			LTH3			LTH4			LLFE			LMFE			LSH1			LSH2			LSH3			LSH4			LLMA			LMMA			LCAL			LMTP			LTOE			LMTP			RPSI			RASI			RTH1			RTH2			RTH3			RTH4			RLFE			RMFE			RSH1			RSH2			RSH3			RSH4			RLMA			RMMA			RCAL			RMTP			RTOE			RMTP		
		X1	Y1	Z1	X2	Y2	Z2	X3	Y3	Z3	X4	Y4	Z4	X5	Y5	Z5	X6	Y6	Z6	X7	Y7	Z7	X8	Y8	Z8	X9	Y9	Z9	X10	Y10	Z10	X11	Y11	Z11	X12	Y12	Z12	X13	Y13	Z13	X14	Y14	Z14	X15	Y15	Z15	X16	Y16	Z16	X17	Y17	Z17	X18	Y18	Z18	X19	Y19	Z19	X20	Y20	Z20	X21	Y21	Z21	X22	Y22	Z22	X23	Y23	Z23	X24	Y24	Z24	X25	Y25	Z25	X26	Y26	Z26	X27	Y27	Z27	X28	Y28	Z28	X29	Y29	Z29	X30	Y30	Z30	X31	Y31	Z31	X32	Y32	Z32	X33	Y33	Z33	X34	Y34	Z34	X35	Y35	Z35	X36	Y36	Z36

481	4.00000	1255.19739	963.98608	265.57605	1078.50232	965.05627	338.46567	1156.21094	568.67346	386.97754	1162.99731	522.99036	380.88962	1213.34998	575.07635	370.00378	1212.57129	527.03381	369.20032	1206.57800	464.07751	374.16736	0.00000	0.00000	0.00000	1310.32971	432.35876	385.39432	1343.76746	403.31406	387.17282	1276.42920	384.54596	392.88394	1318.56128	369.27829	389.49841	1545.06946	209.08232	342.33728	1509.42822	208.07690	250.95436	1604.20496	242.79527	287.60272	1531.67041	82.41895	351.67181	1466.82397	64.68282	280.70276	1499.74707	79.46607	236.12166	1252.42639	979.73236	183.32014	0.00000	0.00000	0.00000	1041.27576	613.11792	75.93011	1021.68555	575.48547	85.25410	983.00592	636.99988	88.27267	972.57916	594.87433	94.64981	972.31378	509.45242	107.24155	999.83844	488.57101	216.38533	1013.93774	391.87048	86.69037	1004.59631	347.93304	90.40286	953.42902	399.49246	101.40767	954.79407	349.41275	105.24726	965.12610	94.53875	151.17677	934.26086	107.58891	246.30339	1023.84888	59.92308	210.53583	806.92175	52.67505	222.47285	805.41052	66.79446	172.21249	849.25537	40.99930	114.12607
482	4.00833	1244.80127	964.21863	265.26834	1068.03455	965.82605	337.65704	1137.33960	567.75372	386.23117	1142.61365	521.86560	380.02130	1194.64526	572.86194	368.86346	1192.20154	524.54736	368.10852	1184.50317	462.71136	373.90546	0.00000	0.00000	0.00000	1287.60864	433.66034	385.31870	1321.64001	405.34241	387.30310	1255.21265	385.17694	391.95740	1299.14868	372.56598	389.33917	1528.21082	219.26180	343.90668	1493.25378	216.30736	251.97304	1585.07739	256.72574	289.92807	1522.05359	91.77499	352.86108	1458.29675	66.61237	282.13858	1491.00916	86.75132	238.02258	1241.92981	980.71057	183.02246	0.00000	0.00000	0.00000	1033.14856	613.61322	75.36996	1013.88354	575.79718	84.71853	974.48639	636.94116	86.90224	964.43713	594.86096	93.52922	964.69452	509.62286	106.77884	991.75903	490.42920	216.20255	1007.67542	392.65140	86.40118	998.91272	348.42136	90.39413	946.96344	399.25763	101.15294	949.26758	348.84802	105.50468	966.57062	95.86591	149.93968	933.95331	107.36450	246.21048	1023.73047	59.99757	210.52051	806.77374	51.89539	222.73170	805.02582	65.98618	172.45732	849.14923	40.87786	114.12363
483	4.01667	1234.01929	964.11609	265.09476	1057.58423	966.72156	336.73776	1119.16956	567.52191	385.61707	1123.60742	521.73895	379.20279	1176.13293	571.33057	367.57928	1173.15466	523.48743	366.66940	1163.24072	461.88745	373.62015	0.00000	0.00000	0.00000	1264.68298	434.97763	385.24283	1299.16016	407.20551	387.28876	1232.76416	385.24731	390.70712	1279.28772	375.86597	389.17123	1509.76672	229.16953	345.15997	1475.74463	224.10957	252.79448	1565.11951	269.83295	291.49246	1510.25256	101.24162	353.86182	1456.31958	65.44979	283.38162	1480.73096	94.15211	240.16942	1231.57153	981.70709	182.57079	0.00000	0.00000	0.00000	1025.70520	613.97430	74.71487	1006.67950	576.06049	84.19588	966.73859	636.81641	85.38200	956.90588	594.65027	92.33759	957.58417	509.61224	106.33609	984.97156	491.52325	215.79204	1002.58661	393.16742	86.87881	994.52899	348.82883	90.95183	941.65411	398.94110	100.78439	944.22778	348.31808	105.65515	964.45898	94.81038	151.66708	933.92462	107.16837	247.08615	1023.66443	60.08429	210.56796	806.61334	51.42743	222.80667	804.85931	65.42256	172.53868	849.09546	40.76509	114.00429
484	4.02500	1224.66333	965.19849	264.33105	1047.38330	967.78339	335.84006	1100.78198	567.78967	384.87106	1104.37390	522.12860	378.56665	1157.70776	570.42047	366.20547	1153.00403	522.23694	365.38306	1140.63940	462.04230	373.24017	1411.43262	452.40329	269.52985	1241.42419	436.63239	385.39066	1276.48328	409.26685	387.51620	1209.56042	385.13770	389.32886	1259.02466	379.15915	388.99619	1489.92578	238.39481	346.13031	1457.16907	231.12326	253.37418	1543.13220	281.98657	293.07401	1496.49182	110.09389	355.11649	1438.88330	68.89407	285.09674	1469.27563	100.94599	241.96262	1221.43152	982.92493	181.92722	0.00000	0.00000	0.00000	1018.59735	614.43640	74.19256	999.94135	576.34351	83.72860	959.14471	636.60846	84.19398	949.91486	594.64099	91.39395	951.26953	509.51157	105.75175	977.73920	492.05643	215.71257	998.45288	393.63519	87.92856	991.02765	349.14105	92.08829	937.24487	398.47327	100.37139	939.65167	347.83734	105.69391	964.25989	94.88614	151.88799	933.73798	107.11053	247.05116	1023.60632	60.16105	210.59732	806.51392	51.09011	222.82898	804.72827	65.11171	172.60461	848.88922	40.63987	113.91853
485	4.03333	1214.74316	966.01440	263.60355	1038.05029	969.15070	335.35956	1082.68823	568.78583	384.20575	1085.51172	523.51892	378.12961	1139.27454	569.87939	365.15866	1133.53479	522.17896	363.91751	1118.92139	462.83875	372.72537	1409.50720	450.59787	270.42053	1218.67297	438.04669	385.13239	1253.95398	411.41092	387.67310	1186.07739	385.22858	388.01843	1238.40527	382.42639	388.81552	1469.11072	246.48422	346.68539	1437.82947	236.81511	253.72865	1521.25623	292.12881	293.72794	1481.90100	118.79190	356.88812	1426.90808	73.74226	287.11203	1456.76501	106.85696	244.00189	1211.35132	984.17633	181.12122	0.00000	0.00000	0.00000	1012.29633	615.95135	74.28078	993.35480	576.74072	83.27284	952.15485	636.61420	82.83369	942.94916	594.27826	90.56404	945.52344	509.19479	105.22202	970.51013	492.26169	215.68324	995.21765	394.37396	89.26943	988.30225	349.53131	93.59795	933.58069	398.08316	99.78412	935.51593	347.42026	105.61618	964.07697	94.66235	152.23412	933.65424	107.12037	247.03049	1023.58685	60.22157	210.59286	806.46790	50.83871	222.83005	804.66510	64.85412	172.64902	848.88348	40.62655	113.88180
